<svg width="23" height="20" viewBox="0 0 23 20" fill="none" xmlns="http://www.w3.org/2000/svg">
<path d="M13.8027 17.5889V11.8848C13.8027 11.6797 13.7412 11.5156 13.6182 11.3926C13.4951 11.2695 13.3311 11.208 13.126 11.208H9.87402C9.66895 11.208 9.50195 11.2695 9.37305 11.3926C9.25 11.5156 9.18848 11.6797 9.18848 11.8848V17.5889H13.8027ZM3.61621 17.29V10.5928L10.9639 4.43164C11.3213 4.12695 11.6816 4.12695 12.0449 4.43164L19.3926 10.5928V17.29C19.3926 17.9229 19.2051 18.418 18.8301 18.7754C18.4551 19.1328 17.9453 19.3115 17.3008 19.3115H5.70801C5.05762 19.3115 4.54492 19.1328 4.16992 18.7754C3.80078 18.418 3.61621 17.9229 3.61621 17.29ZM0.768555 9.38867C0.768555 9.11914 0.882812 8.8877 1.11133 8.69434L10.2695 1.00391C10.6504 0.6875 11.0635 0.529297 11.5088 0.529297C11.9541 0.529297 12.3643 0.6875 12.7393 1.00391L21.8887 8.69434C22.1172 8.88184 22.2314 9.12207 22.2314 9.41504C22.2314 9.66699 22.1436 9.86621 21.9678 10.0127C21.7979 10.1592 21.5869 10.2324 21.335 10.2324C21.2002 10.2324 21.0713 10.2002 20.9482 10.1357C20.8252 10.0713 20.7109 9.99805 20.6055 9.91602L11.8867 2.59473C11.7637 2.48926 11.6377 2.43652 11.5088 2.43652C11.3799 2.43652 11.2539 2.48926 11.1309 2.59473L2.40332 9.91602C2.29199 9.99805 2.1748 10.0713 2.05176 10.1357C1.93457 10.2002 1.80859 10.2324 1.67383 10.2324C1.39258 10.2324 1.16992 10.1504 1.00586 9.98633C0.847656 9.81641 0.768555 9.61719 0.768555 9.38867ZM16.9316 5.12598V2.97266C16.9316 2.7793 16.9902 2.62402 17.1074 2.50684C17.2305 2.38379 17.3887 2.32227 17.582 2.32227H18.7686C18.9678 2.32227 19.126 2.38379 19.2432 2.50684C19.3604 2.62402 19.4189 2.7793 19.4189 2.97266V7.21777L16.9316 5.12598Z" fill="#04C7AF"/>
</svg>
