<svg width="17" height="22" viewBox="0 0 17 22" fill="none" xmlns="http://www.w3.org/2000/svg">
<path d="M4.62402 10.6084H12.376C12.5576 10.6084 12.71 10.5469 12.833 10.4238C12.9619 10.2949 13.0264 10.1426 13.0264 9.9668C13.0264 9.78516 12.9619 9.62988 12.833 9.50098C12.71 9.37207 12.5576 9.30762 12.376 9.30762H4.62402C4.44238 9.30762 4.28711 9.37207 4.1582 9.50098C4.03516 9.62988 3.97363 9.78516 3.97363 9.9668C3.97363 10.1426 4.03516 10.2949 4.1582 10.4238C4.28711 10.5469 4.44238 10.6084 4.62402 10.6084ZM4.62402 13.8428H12.376C12.5576 13.8428 12.71 13.7812 12.833 13.6582C12.9619 13.5293 13.0264 13.374 13.0264 13.1924C13.0264 13.0107 12.9619 12.8584 12.833 12.7354C12.71 12.6123 12.5576 12.5508 12.376 12.5508H4.62402C4.44238 12.5508 4.28711 12.6123 4.1582 12.7354C4.03516 12.8584 3.97363 13.0107 3.97363 13.1924C3.97363 13.374 4.03516 13.5293 4.1582 13.6582C4.28711 13.7812 4.44238 13.8428 4.62402 13.8428ZM4.62402 17.2617H8.59668C8.77246 17.2617 8.9248 17.1973 9.05371 17.0684C9.18262 16.9336 9.24707 16.7783 9.24707 16.6025C9.24707 16.4209 9.18262 16.2686 9.05371 16.1455C8.93066 16.0225 8.77832 15.9609 8.59668 15.9609H4.62402C4.44238 15.9609 4.28711 16.0225 4.1582 16.1455C4.03516 16.2686 3.97363 16.4209 3.97363 16.6025C3.97363 16.7783 4.03516 16.9336 4.1582 17.0684C4.28711 17.1973 4.44238 17.2617 4.62402 17.2617ZM3.83301 21.876C2.90137 21.876 2.19238 21.6299 1.70605 21.1377C1.21973 20.6455 0.976562 19.9277 0.976562 18.9844V5.67773C0.976562 4.72852 1.2168 4.00781 1.69727 3.51562C2.17773 3.02344 2.86621 2.77734 3.7627 2.77734H3.94727C3.93555 2.81836 3.92383 2.8623 3.91211 2.90918C3.90625 2.95605 3.90332 3.00293 3.90332 3.0498V4.06934C3.90332 4.63184 4.07617 5.09766 4.42188 5.4668C4.77344 5.83008 5.23047 6.01172 5.79297 6.01172H11.207C11.7695 6.01172 12.2236 5.83008 12.5693 5.4668C12.9209 5.09766 13.0967 4.63184 13.0967 4.06934V3.0498C13.0967 3.00293 13.0908 2.95605 13.0791 2.90918C13.0732 2.8623 13.0645 2.81836 13.0527 2.77734H13.2373C14.1338 2.77734 14.8223 3.02344 15.3027 3.51562C15.7832 4.00781 16.0234 4.72852 16.0234 5.67773V18.9844C16.0234 19.9277 15.7803 20.6455 15.2939 21.1377C14.8076 21.6299 14.0957 21.876 13.1582 21.876H3.83301ZM5.79297 4.97461C5.52344 4.97461 5.3125 4.89551 5.16016 4.7373C5.01367 4.5791 4.94043 4.35645 4.94043 4.06934V3.14648C4.94043 2.85937 5.01367 2.63672 5.16016 2.47852C5.3125 2.32031 5.52344 2.24121 5.79297 2.24121H6.54004C6.56934 1.73145 6.77148 1.29785 7.14648 0.94043C7.52148 0.577148 7.97266 0.395508 8.5 0.395508C9.02148 0.395508 9.46973 0.577148 9.84473 0.94043C10.2256 1.29785 10.4307 1.73145 10.46 2.24121H11.207C11.4766 2.24121 11.6846 2.32031 11.8311 2.47852C11.9834 2.63672 12.0596 2.85937 12.0596 3.14648V4.06934C12.0596 4.35645 11.9834 4.5791 11.8311 4.7373C11.6846 4.89551 11.4766 4.97461 11.207 4.97461H5.79297ZM8.5 3.09375C8.7168 3.09375 8.89844 3.01758 9.04492 2.86523C9.19727 2.70703 9.27344 2.52539 9.27344 2.32031C9.27344 2.10352 9.19727 1.91895 9.04492 1.7666C8.89844 1.61426 8.7168 1.53809 8.5 1.53809C8.2832 1.53809 8.09863 1.61426 7.94629 1.7666C7.7998 1.91895 7.72656 2.10352 7.72656 2.32031C7.72656 2.52539 7.7998 2.70703 7.94629 2.86523C8.09863 3.01758 8.2832 3.09375 8.5 3.09375Z" fill="#04C7AF"/>
</svg>
