<svg width="19" height="19" viewBox="0 0 19 19" fill="none" xmlns="http://www.w3.org/2000/svg">
<path d="M8.69141 18.9883C8.43359 18.9883 8.21094 18.915 8.02344 18.7686C7.8418 18.6279 7.72168 18.4287 7.66309 18.1709L7.22363 16.2988C7.07129 16.2461 6.92188 16.1904 6.77539 16.1318C6.63477 16.0791 6.5 16.0234 6.37109 15.9648L4.73633 16.958C4.51953 17.0928 4.29395 17.1484 4.05957 17.125C3.8252 17.1074 3.61719 17.0078 3.43555 16.8262L2.31934 15.71C2.1377 15.5283 2.03516 15.3174 2.01172 15.0771C1.98828 14.8311 2.04688 14.5996 2.1875 14.3828L3.18066 12.7656C3.12207 12.6309 3.06348 12.4961 3.00488 12.3613C2.94629 12.2207 2.89648 12.0801 2.85547 11.9395L0.974609 11.4912C0.716797 11.4385 0.514648 11.3213 0.368164 11.1396C0.227539 10.9521 0.157227 10.7266 0.157227 10.4629V8.88965C0.157227 8.63184 0.227539 8.41211 0.368164 8.23047C0.514648 8.04297 0.716797 7.92285 0.974609 7.87012L2.83789 7.42188C2.88477 7.26367 2.9375 7.11426 2.99609 6.97363C3.05469 6.83301 3.11035 6.70117 3.16309 6.57812L2.16992 4.93457C2.0293 4.71777 1.96777 4.49219 1.98535 4.25781C2.00879 4.02344 2.11426 3.81543 2.30176 3.63379L3.43555 2.50879C3.62305 2.33301 3.8252 2.2334 4.04199 2.20996C4.26465 2.18066 4.48438 2.22754 4.70117 2.35059L6.3623 3.37012C6.49121 3.30566 6.62891 3.24414 6.77539 3.18555C6.92188 3.12695 7.07129 3.07129 7.22363 3.01855L7.66309 1.1377C7.72168 0.885742 7.8418 0.686523 8.02344 0.540039C8.21094 0.387695 8.43359 0.311523 8.69141 0.311523H10.2998C10.5635 0.311523 10.7861 0.387695 10.9678 0.540039C11.1494 0.686523 11.2695 0.885742 11.3281 1.1377L11.7676 3.03613C11.9258 3.08887 12.0752 3.14453 12.2158 3.20312C12.3623 3.25586 12.4971 3.31445 12.6201 3.37891L14.29 2.35059C14.5068 2.22754 14.7236 2.18066 14.9404 2.20996C15.1631 2.23926 15.3652 2.33594 15.5469 2.5L16.6982 3.63379C16.8857 3.81543 16.9883 4.02344 17.0059 4.25781C17.0234 4.49219 16.9619 4.71777 16.8213 4.93457L15.8193 6.57812C15.8721 6.70117 15.9277 6.83301 15.9863 6.97363C16.0449 7.11426 16.1006 7.26367 16.1533 7.42188L18.0254 7.87012C18.2773 7.92285 18.4736 8.04297 18.6143 8.23047C18.7607 8.41211 18.834 8.63184 18.834 8.88965V10.4629C18.834 10.7266 18.7607 10.9521 18.6143 11.1396C18.4736 11.3213 18.2773 11.4385 18.0254 11.4912L16.1357 11.9395C16.0889 12.0801 16.0391 12.2207 15.9863 12.3613C15.9336 12.4961 15.8721 12.6309 15.8018 12.7656L16.8037 14.3828C16.9502 14.5996 17.0117 14.8311 16.9883 15.0771C16.9648 15.3174 16.8623 15.5283 16.6807 15.71L15.5557 16.8262C15.374 17.0078 15.166 17.1074 14.9316 17.125C14.6973 17.1484 14.4717 17.0928 14.2549 16.958L12.6201 15.9648C12.4912 16.0234 12.3535 16.0791 12.207 16.1318C12.0664 16.1904 11.9199 16.2461 11.7676 16.2988L11.3281 18.1709C11.2695 18.4287 11.1494 18.6279 10.9678 18.7686C10.7861 18.915 10.5635 18.9883 10.2998 18.9883H8.69141ZM9.5 12.7305C10.0625 12.7305 10.5752 12.5928 11.0381 12.3174C11.5068 12.0361 11.8789 11.6611 12.1543 11.1924C12.4297 10.7236 12.5674 10.208 12.5674 9.64551C12.5674 9.08301 12.4297 8.57031 12.1543 8.10742C11.8789 7.64453 11.5068 7.27539 11.0381 7C10.5752 6.71875 10.0625 6.57812 9.5 6.57812C8.9375 6.57812 8.42188 6.71875 7.95312 7C7.49023 7.27539 7.11816 7.64453 6.83691 8.10742C6.56152 8.57031 6.42383 9.08301 6.42383 9.64551C6.42383 10.208 6.56152 10.7236 6.83691 11.1924C7.1123 11.6611 7.48438 12.0361 7.95312 12.3174C8.42188 12.5928 8.9375 12.7305 9.5 12.7305Z" fill="#04C7AF"/>
</svg>
