<svg width="18" height="17" viewBox="0 0 18 17" fill="none" xmlns="http://www.w3.org/2000/svg">
<path d="M4.18359 16.8721C3.27539 16.8721 2.58105 16.6377 2.10059 16.1689C1.62012 15.7002 1.37988 15.0117 1.37988 14.1035V5.90332H16.6201V14.1035C16.6201 15.0059 16.3799 15.6914 15.8994 16.1602C15.4189 16.6348 14.7246 16.8721 13.8164 16.8721H4.18359ZM6.16992 9.25195H11.8389C12.0498 9.25195 12.2227 9.18457 12.3574 9.0498C12.4922 8.91504 12.5596 8.73926 12.5596 8.52246V8.25C12.5596 8.0332 12.4922 7.86035 12.3574 7.73145C12.2227 7.59668 12.0498 7.5293 11.8389 7.5293H6.16992C5.95898 7.5293 5.78613 7.59668 5.65137 7.73145C5.52246 7.86035 5.45801 8.0332 5.45801 8.25V8.52246C5.45801 8.73926 5.52246 8.91504 5.65137 9.0498C5.78613 9.18457 5.95898 9.25195 6.16992 9.25195ZM1.72266 4.62012C1.18945 4.62012 0.788086 4.47363 0.518555 4.18066C0.254883 3.8877 0.123047 3.48047 0.123047 2.95898V2.12402C0.123047 1.60254 0.263672 1.19531 0.544922 0.902344C0.826172 0.609375 1.21875 0.462891 1.72266 0.462891H16.2861C16.8135 0.462891 17.209 0.609375 17.4727 0.902344C17.7422 1.19531 17.877 1.60254 17.877 2.12402V2.95898C17.877 3.48047 17.7422 3.8877 17.4727 4.18066C17.209 4.47363 16.8135 4.62012 16.2861 4.62012H1.72266Z" fill="#04C7AF"/>
</svg>
